<svg width="160" height="180" viewBox="0 0 160 180" fill="none" xmlns="http://www.w3.org/2000/svg">
<g clip-path="url(#clip0_20_8921)">
<path d="M150.244 180.192H9.20496C6.69226 180.189 4.28329 179.189 2.50655 177.412C0.729804 175.635 -0.269626 173.225 -0.272461 170.712V9.49739C-0.269624 6.98413 0.729804 4.57463 2.50655 2.79748C4.28329 1.02034 6.69226 0.0206884 9.20496 0.0178375H150.244C152.757 0.020677 155.166 1.02032 156.942 2.79747C158.719 4.57462 159.718 6.98413 159.721 9.49739V170.712C159.718 173.225 158.719 175.635 156.942 177.412C155.166 179.189 152.757 180.189 150.244 180.192Z" fill="#EBEBEB"/>
<path d="M143.653 172.291H15.7953C13.5643 172.289 11.4254 171.401 9.84785 169.823C8.27029 168.245 7.3829 166.106 7.38037 163.874V16.3354C7.3829 14.1039 8.27029 11.9645 9.84785 10.3866C11.4254 8.80871 13.5643 7.92113 15.7953 7.91859H143.653C145.884 7.92112 148.023 8.8087 149.601 10.3866C151.178 11.9645 152.066 14.1039 152.068 16.3354V163.874C152.066 166.106 151.178 168.245 149.601 169.823C148.023 171.401 145.884 172.289 143.653 172.291Z" fill="white"/>
<path d="M138.567 28.9175H74.0666C73.7901 28.9179 73.5162 28.8638 73.2606 28.7582C73.0051 28.6527 72.7728 28.4977 72.5772 28.3023C72.3815 28.1069 72.2263 27.8748 72.1204 27.6193C72.0145 27.3639 71.96 27.09 71.96 26.8135C71.96 26.5369 72.0145 26.2631 72.1204 26.0076C72.2263 25.7521 72.3815 25.52 72.5772 25.3246C72.7728 25.1292 73.0051 24.9743 73.2606 24.8687C73.5162 24.7632 73.7901 24.709 74.0666 24.7094H138.567C138.844 24.709 139.118 24.7632 139.373 24.8687C139.629 24.9743 139.861 25.1292 140.057 25.3246C140.252 25.52 140.407 25.7521 140.513 26.0076C140.619 26.2631 140.674 26.5369 140.674 26.8135C140.674 27.09 140.619 27.3639 140.513 27.6193C140.407 27.8748 140.252 28.1069 140.057 28.3023C139.861 28.4977 139.629 28.6527 139.373 28.7582C139.118 28.8638 138.844 28.9179 138.567 28.9175Z" fill="#E4E4E4"/>
<path d="M138.567 37.2317H74.0661C73.5082 37.2317 72.9731 37.01 72.5785 36.6154C72.184 36.2208 71.9624 35.6856 71.9624 35.1275C71.9624 34.5695 72.184 34.0343 72.5785 33.6397C72.9731 33.2451 73.5082 33.0234 74.0661 33.0234H138.567C139.125 33.0234 139.66 33.2451 140.054 33.6397C140.449 34.0343 140.67 34.5695 140.67 35.1275C140.67 35.6856 140.449 36.2208 140.054 36.6154C139.66 37.01 139.125 37.2317 138.567 37.2317Z" fill="#E4E4E4"/>
<path d="M102.026 45.5458H74.0661C73.5082 45.5458 72.9731 45.3241 72.5786 44.9295C72.184 44.5349 71.9624 43.9997 71.9624 43.4416C71.9624 42.8836 72.184 42.3484 72.5786 41.9538C72.9731 41.5592 73.5082 41.3375 74.0661 41.3375H102.026C102.584 41.3375 103.119 41.5592 103.513 41.9538C103.908 42.3484 104.129 42.8836 104.129 43.4416C104.129 43.9997 103.908 44.5349 103.513 44.9295C103.119 45.3241 102.584 45.5458 102.026 45.5458Z" fill="#E4E4E4"/>
<path d="M130.789 79.1253H28.9625C28.686 79.1257 28.4122 79.0715 28.1566 78.966C27.9011 78.8604 27.6688 78.7055 27.4731 78.5101C27.2775 78.3147 27.1223 78.0826 27.0164 77.8271C26.9105 77.5716 26.856 77.2978 26.856 77.0212C26.856 76.7447 26.9105 76.4708 27.0164 76.2154C27.1223 75.9599 27.2775 75.7278 27.4731 75.5324C27.6688 75.337 27.9011 75.1821 28.1566 75.0765C28.4122 74.9709 28.686 74.9168 28.9625 74.9172H130.789C131.066 74.9168 131.339 74.9709 131.595 75.0765C131.851 75.1821 132.083 75.337 132.278 75.5324C132.474 75.7278 132.629 75.9599 132.735 76.2154C132.841 76.4708 132.896 76.7447 132.896 77.0212C132.896 77.2978 132.841 77.5716 132.735 77.8271C132.629 78.0826 132.474 78.3147 132.278 78.5101C132.083 78.7055 131.851 78.8604 131.595 78.966C131.339 79.0715 131.066 79.1257 130.789 79.1253Z" fill="#E4E4E4"/>
<path d="M130.789 87.4394H28.9626C28.4046 87.4394 27.8696 87.2177 27.475 86.8231C27.0805 86.4285 26.8589 85.8933 26.8589 85.3353C26.8589 84.7772 27.0805 84.242 27.475 83.8474C27.8696 83.4528 28.4046 83.2311 28.9626 83.2311H130.789C131.347 83.2311 131.882 83.4528 132.277 83.8474C132.671 84.242 132.893 84.7772 132.893 85.3353C132.893 85.8933 132.671 86.4285 132.277 86.8231C131.882 87.2177 131.347 87.4394 130.789 87.4394Z" fill="#E4E4E4"/>
<path d="M130.789 106.312H28.9625C28.4046 106.312 27.8695 106.091 27.475 105.696C27.0805 105.301 26.8589 104.766 26.8589 104.208C26.8589 103.65 27.0805 103.115 27.475 102.72C27.8695 102.326 28.4046 102.104 28.9625 102.104H130.789C131.347 102.104 131.882 102.326 132.276 102.72C132.671 103.115 132.893 103.65 132.893 104.208C132.893 104.766 132.671 105.301 132.276 105.696C131.882 106.091 131.347 106.312 130.789 106.312Z" fill="#E4E4E4"/>
<path d="M130.789 114.626H28.9626C28.4046 114.626 27.8696 114.404 27.475 114.01C27.0805 113.615 26.8589 113.08 26.8589 112.522C26.8589 111.964 27.0805 111.429 27.475 111.034C27.8696 110.64 28.4046 110.418 28.9626 110.418H130.789C131.347 110.418 131.882 110.64 132.277 111.034C132.671 111.429 132.893 111.964 132.893 112.522C132.893 113.08 132.671 113.615 132.277 114.01C131.882 114.404 131.347 114.626 130.789 114.626Z" fill="#E4E4E4"/>
<path d="M130.789 133.499H28.9625C28.4046 133.499 27.8695 133.277 27.475 132.883C27.0805 132.488 26.8589 131.953 26.8589 131.395C26.8589 130.837 27.0805 130.302 27.475 129.907C27.8695 129.513 28.4046 129.291 28.9625 129.291H130.789C131.347 129.291 131.882 129.513 132.276 129.907C132.671 130.302 132.893 130.837 132.893 131.395C132.893 131.953 132.671 132.488 132.276 132.883C131.882 133.277 131.347 133.499 130.789 133.499Z" fill="#E4E4E4"/>
<path d="M130.789 141.813H28.9626C28.4046 141.813 27.8696 141.591 27.475 141.197C27.0805 140.802 26.8589 140.267 26.8589 139.709C26.8589 139.151 27.0805 138.616 27.475 138.221C27.8696 137.826 28.4046 137.605 28.9626 137.605H130.789C131.347 137.605 131.882 137.826 132.277 138.221C132.671 138.616 132.893 139.151 132.893 139.709C132.893 140.267 132.671 140.802 132.277 141.197C131.882 141.591 131.347 141.813 130.789 141.813Z" fill="#E4E4E4"/>
<path d="M130.771 164.843H102.812C102.254 164.843 101.719 164.621 101.324 164.227C100.93 163.832 100.708 163.297 100.708 162.739C100.708 162.181 100.93 161.645 101.324 161.251C101.719 160.856 102.254 160.635 102.812 160.635H130.771C131.329 160.635 131.864 160.856 132.259 161.251C132.653 161.645 132.875 162.181 132.875 162.739C132.875 163.297 132.653 163.832 132.259 164.227C131.864 164.621 131.329 164.843 130.771 164.843Z" fill="#A6EE5D"/>
<path d="M56.2113 35.3739C56.2171 39.8925 54.6877 44.2791 51.8738 47.8143C50.9637 48.9649 49.9275 50.0099 48.7847 50.9297C45.666 53.4602 41.8555 54.9889 37.853 55.3154C37.3081 55.3626 36.7588 55.384 36.2053 55.384C35.1086 55.3843 34.0137 55.2939 32.9319 55.1137C32.5502 55.0536 32.1769 54.9807 31.8036 54.8949C31.1538 54.7502 30.5122 54.5712 29.8815 54.3585C27.836 53.6775 25.9146 52.6688 24.1924 51.3717C23.7334 51.0284 23.2916 50.6637 22.8626 50.2775C22.3379 49.8119 21.8407 49.3162 21.3738 48.7927C21.2493 48.6554 21.1249 48.5138 21.0048 48.3721C18.9114 45.9215 17.4411 43.0011 16.719 39.8597C15.9969 36.7182 16.0444 33.4488 16.8576 30.3297C17.6707 27.2106 19.2253 24.3342 21.3891 21.9455C23.5529 19.5567 26.2618 17.7263 29.2851 16.6101C32.3084 15.4939 35.5566 15.125 38.7531 15.5347C41.9496 15.9444 44.9998 17.1207 47.644 18.9633C50.2882 20.8059 52.4481 23.2604 53.9398 26.1177C55.4315 28.975 56.2108 32.1505 56.2113 35.3739Z" fill="#E4E4E4"/>
<path d="M35.5094 42.2028C40.0372 42.2028 43.7077 38.5315 43.7077 34.0027C43.7077 29.4739 40.0372 25.8026 35.5094 25.8026C30.9816 25.8026 27.311 29.4739 27.311 34.0027C27.311 38.5315 30.9816 42.2028 35.5094 42.2028Z" fill="#9E616A"/>
<path d="M44.6361 30.0054C44.6733 29.2727 44.4666 28.5483 44.0483 27.9456L43.7523 27.5251C42.6839 25.4653 40.9207 23.6115 39.6294 22.2554C38.6596 21.2384 37.6901 20.7492 36.759 20.7964C36.0814 20.8448 35.4505 21.1595 35.0043 21.6718C33.7782 21.5969 32.5568 21.8814 31.4899 22.4904C30.4231 23.0994 29.557 24.0065 28.9978 25.1005C25.0722 27.1732 26.2435 33.2926 26.2562 33.3569L27.2046 34.949L27.3119 34.7473C27.3119 34.743 27.3246 34.7258 27.3418 34.6915C27.5264 34.3611 28.5302 32.5244 29.2081 31.3615C29.4556 30.9648 29.7847 30.6254 30.1735 30.3659C30.8084 29.932 31.5382 29.6568 32.3015 29.5634L34.3865 29.2931L33.5972 30.4775H39.2774L41.4611 30.22C41.68 31.1169 43.4133 34.5971 43.6234 35.0176L43.6406 35.052L43.7565 35.288L44.4044 33.5071C44.7827 32.3795 44.8625 31.1731 44.6361 30.0054Z" fill="#35412E"/>
<path d="M24.2529 51.4147C24.6047 50.9512 26.4281 48.7884 30.6241 47.6427L32.8465 45.1666L41.7575 43.7462L46.2923 46.2523L51.8741 47.8143C50.964 48.965 49.9278 50.01 48.785 50.9298C45.6663 53.4602 41.8558 54.989 37.8533 55.3154C37.3084 55.3627 36.7592 55.3841 36.2058 55.3841C35.109 55.3844 34.0141 55.2939 32.9323 55.1138C32.5504 55.0537 32.1772 54.9807 31.8039 54.8949C31.1542 54.7503 30.5126 54.5712 29.8818 54.3585C27.8595 53.6864 25.9587 52.6924 24.2529 51.4147C24.2315 51.4018 24.2143 51.3846 24.1929 51.3718L24.2529 51.4147Z" fill="#A6EE5D"/>
</g>
<defs>
<clipPath id="clip0_20_8921">
<rect width="160" height="180" fill="white"/>
</clipPath>
</defs>
</svg>
