<svg width="40" height="40" viewBox="0 0 40 40" fill="none" xmlns="http://www.w3.org/2000/svg">
<path d="M21.6629 2.91197L19.5795 9.02478L17.496 2.91197C17.1044 1.75983 17.7169 0.511845 18.869 0.118075C20.0191 -0.273611 21.2712 0.341004 21.6629 1.49106C21.8254 1.97025 21.8129 2.4682 21.6629 2.91197ZM2.91197 17.496L9.02478 19.5795L2.91197 21.6629C1.75983 22.0546 0.511845 21.4421 0.118075 20.2899C-0.273611 19.1399 0.341004 17.8877 1.49106 17.496C1.97025 17.3335 2.4682 17.346 2.91197 17.496ZM17.496 36.247L19.5795 30.1342L21.6629 36.247C22.0546 37.3991 21.4421 38.6471 20.2899 39.0409C19.1399 39.4326 17.8898 38.8201 17.496 37.6679C17.3335 37.1887 17.346 36.6908 17.496 36.247ZM36.247 21.6588L30.1342 19.5753L36.247 17.4919C37.3991 17.1002 38.6471 17.7127 39.0409 18.8649C39.4326 20.0149 38.8201 21.265 37.6679 21.6588C37.1887 21.8213 36.6908 21.8088 36.247 21.6588ZM9.26646 6.32048L12.1145 12.1145L6.32048 9.26646C5.22875 8.73102 4.77873 7.41012 5.31417 6.32048C5.8517 5.23084 7.17052 4.78081 8.26016 5.31626C8.71435 5.53919 9.05812 5.89962 9.26646 6.32048ZM6.32048 29.8904L12.1145 27.0424L9.26646 32.8364C8.73102 33.9261 7.41012 34.3761 6.32048 33.8406C5.23084 33.3031 4.78081 31.9843 5.31626 30.8946C5.53919 30.4405 5.89962 30.0988 6.32048 29.8904ZM29.8904 32.8364L27.0424 27.0424L32.8364 29.8904C33.9261 30.4259 34.3761 31.7468 33.8406 32.8364C33.3031 33.9261 31.9843 34.3761 30.8946 33.8406C30.4405 33.6177 30.0988 33.2573 29.8904 32.8364ZM32.8343 9.26229L27.0382 12.1124L29.8883 6.31631C30.4238 5.22667 31.7447 4.77665 32.8343 5.31209C33.924 5.84962 34.374 7.16844 33.8365 8.26016C33.6156 8.71226 33.2552 9.05395 32.8343 9.26229ZM19.5795 28.955C14.4105 28.955 10.204 24.7485 10.204 19.5795C10.204 14.4105 14.4105 10.204 19.5795 10.204C24.7485 10.204 28.955 14.4105 28.955 19.5795C28.955 24.7485 24.7485 28.955 19.5795 28.955ZM19.5795 14.3709C16.7064 14.3709 14.3709 16.7064 14.3709 19.5795C14.3709 22.4526 16.7064 24.7881 19.5795 24.7881C22.4526 24.7881 24.7881 22.4526 24.7881 19.5795C24.7881 16.7064 22.4526 14.3709 19.5795 14.3709Z" fill="black"/>
</svg>
