<svg width="49" height="45" viewBox="0 0 49 45" fill="none" xmlns="http://www.w3.org/2000/svg">
<path d="M29.7428 3.05749L27.5396 9.667L25.3364 3.05749C24.9311 1.83914 25.5876 0.526048 26.8038 0.120665C28.0221 -0.286922 29.3374 0.371826 29.7428 1.58798C29.908 2.08589 29.897 2.59703 29.7428 3.05749ZM41.5606 9.77716L35.3278 12.8946L38.4453 6.66187C39.0203 5.51402 40.4149 5.05136 41.5606 5.62198C42.7084 6.19701 43.1711 7.59161 42.6005 8.73946C42.3647 9.20653 41.9968 9.55904 41.5606 9.77716ZM45.165 22.886L38.5555 20.6828L45.165 18.4797C46.3833 18.0721 47.6964 18.7308 48.104 19.9492C48.5094 21.1653 47.8506 22.4784 46.6323 22.886C46.1366 23.0512 45.6254 23.038 45.165 22.886ZM16.6339 6.66187L19.7514 12.8946L13.5186 9.77716C12.3708 9.20213 11.9059 7.80752 12.4787 6.66187C13.0538 5.51402 14.4506 5.05136 15.594 5.62198C16.0633 5.85772 16.4158 6.22565 16.6339 6.66187ZM36.9604 23.6395C37.2666 22.7054 37.4539 21.7205 37.4539 20.6828C37.4539 15.2168 33.0057 10.7686 27.5396 10.7686C24.5874 10.7686 21.9502 12.0773 20.1436 14.135L19.8285 14.0733C15.9157 14.0733 12.406 15.7918 9.98256 18.5039C9.4538 18.3277 8.94266 18.3144 8.44695 18.4797C7.2286 18.8873 6.56985 20.2003 6.97523 21.4165C7.10081 21.7844 7.32333 22.0752 7.58551 22.322C6.96201 23.8576 6.60951 25.5342 6.60951 27.2923L6.61391 27.5699C2.81345 28.5504 0 32.0049 0 36.105C0 40.9652 3.95469 44.9177 8.81268 44.9177H33.0475C39.1217 44.9177 44.0634 39.976 44.0634 33.9019C44.0634 29.2113 41.1023 25.2236 36.9604 23.6395ZM27.5396 15.1749C30.5778 15.1749 33.0475 17.6447 33.0475 20.6828C33.0475 21.4892 32.836 22.2383 32.5232 22.9279C31.7433 22.9741 30.9369 23.0909 30.06 23.3421C28.9122 20.3612 26.5262 18.0214 23.5232 16.9419C24.5279 15.8623 25.9511 15.1749 27.5396 15.1749ZM33.0475 40.5114H8.81268C6.38038 40.5114 4.40634 38.5351 4.40634 36.105C4.40634 33.6749 6.38038 31.6987 8.60998 31.6855L11.7429 31.7207L11.1965 29.0725C11.0753 28.4931 11.0158 27.8916 11.0158 27.2923C11.0158 22.4322 14.9705 18.4797 19.8285 18.4797L19.9805 18.4488C24.1754 18.57 27.6806 21.5465 28.4561 25.6532L28.5399 26.063C28.8108 27.0236 29.6789 27.6184 30.624 27.6316L31.2608 27.581C31.9482 27.3827 32.5144 27.2923 33.0475 27.2923C36.6916 27.2923 39.657 30.2578 39.657 33.9019C39.657 37.5459 36.6916 40.5114 33.0475 40.5114Z" fill="black"/>
</svg>
