<svg width="46" height="40" viewBox="0 0 46 40" fill="none" xmlns="http://www.w3.org/2000/svg">
<path d="M34.1229 31.8481C32.8672 31.8481 31.8481 30.8312 31.8481 29.5732C31.8481 28.3152 32.8672 27.2983 34.1229 27.2983C37.8856 27.2983 40.9475 24.2364 40.9475 20.4738C40.9475 16.7111 37.8856 13.6492 34.1229 13.6492C33.5701 13.6492 32.9855 13.7424 32.2803 13.9449L29.8348 14.6433L29.414 12.1341C28.6724 7.73908 24.9143 4.54972 20.4738 4.54972C15.4554 4.54972 11.3743 8.63083 11.3743 13.6492C11.3743 14.2679 11.4357 14.889 11.5608 15.4941L12.1159 18.2216L8.88561 18.1852C6.59028 18.1989 4.54972 20.2394 4.54972 22.7486C4.54972 25.2578 6.59028 27.2983 9.09945 27.2983C10.3552 27.2983 11.3743 28.3152 11.3743 29.5732C11.3743 30.8312 10.3552 31.8481 9.09945 31.8481C4.0811 31.8481 0 27.767 0 22.7486C0 18.5151 2.905 14.9481 6.82686 13.9358L6.82459 13.6492C6.82459 6.12165 12.9462 0 20.4738 0C26.3588 0 31.4477 3.72622 33.3267 9.13357C40.0126 8.57851 45.4972 13.9404 45.4972 20.4738C45.4972 26.7456 40.3947 31.8481 34.1229 31.8481ZM19.3363 31.8481L21.6112 25.0235L23.8861 31.8481C24.3046 33.1061 23.6267 34.4619 22.3687 34.8805C21.113 35.3013 19.7549 34.6211 19.3363 33.3654C19.1657 32.8513 19.1771 32.3235 19.3363 31.8481ZM26.1609 36.3978L28.4358 29.5732L30.7106 36.3978C31.1292 37.6558 30.4513 39.0116 29.1933 39.4302C27.9376 39.851 26.5795 39.1708 26.1609 37.9151C25.9903 37.401 26.0017 36.8732 26.1609 36.3978ZM12.5117 36.3978L14.7866 29.5732L17.0615 36.3978C17.48 37.6558 16.8021 39.0116 15.5441 39.4302C14.2884 39.851 12.9303 39.1708 12.5117 37.9151C12.3411 37.401 12.3525 36.8732 12.5117 36.3978Z" fill="black"/>
</svg>
