<svg width="42" height="42" viewBox="0 0 42 42" fill="none" xmlns="http://www.w3.org/2000/svg">
<path d="M27.3 37.8C26.1408 37.8 25.2 36.8613 25.2 35.7V23.1C25.2 21.9387 26.1408 21 27.3 21C28.4592 21 29.4 21.9387 29.4 23.1V35.7C29.4 36.8613 28.4592 37.8 27.3 37.8ZM14.7 37.8C13.5408 37.8 12.6 36.8613 12.6 35.7V23.1C12.6 21.9387 13.5408 21 14.7 21C15.8592 21 16.8 21.9387 16.8 23.1V35.7C16.8 36.8613 15.8592 37.8 14.7 37.8ZM21 42C19.8408 42 18.9 41.0613 18.9 39.9V27.3C18.9 26.1387 19.8408 25.2 21 25.2C22.1592 25.2 23.1 26.1387 23.1 27.3V39.9C23.1 41.0613 22.1592 42 21 42ZM8.4 29.4C3.7674 29.4 0 25.6326 0 21C0 17.0919 2.6817 13.7991 6.3021 12.8646L6.3 12.6C6.3 5.6511 11.9511 0 18.9 0C24.3327 0 29.0304 3.4419 30.765 8.4315C36.9306 7.9191 42 12.8688 42 18.9C42 23.6061 38.8353 27.7683 34.3014 29.0199C33.1779 29.3265 32.0271 28.6713 31.7184 27.5562C31.4097 26.439 32.0649 25.2819 33.1842 24.9732C35.9016 24.2214 37.8 21.7245 37.8 18.9C37.8 15.4266 34.9734 12.6 31.5 12.6C30.9918 12.6 30.4521 12.6861 29.7969 12.873L27.5415 13.5156L27.153 11.2014C26.4684 7.1442 22.9992 4.2 18.9 4.2C14.2674 4.2 10.5 7.9674 10.5 12.6C10.5 13.1712 10.5567 13.7445 10.6722 14.2968L11.193 16.821L8.2068 16.7874C6.0837 16.8 4.2 18.6837 4.2 21C4.2 23.3163 6.0837 25.2 8.4 25.2C9.5592 25.2 10.5 26.1387 10.5 27.3C10.5 28.4613 9.5592 29.4 8.4 29.4Z" fill="black"/>
</svg>
