<svg width="35" height="40" viewBox="0 0 35 40" fill="none" xmlns="http://www.w3.org/2000/svg">
<path d="M33.2169 26.6782L28.0182 25.6065L31.1561 24.7628C32.2838 24.4582 32.9546 23.2928 32.652 22.1529C32.3515 21.0173 31.1941 20.342 30.06 20.6466L26.8692 21.5052C26.9475 21.0131 27.0195 20.5167 27.0195 20.0011C27.0195 19.4855 26.9475 18.9869 26.8692 18.4948L30.0642 19.3555L30.6144 19.4279C31.5475 19.4279 32.4044 18.7994 32.6562 17.8492C32.9588 16.7136 32.2881 15.544 31.1603 15.2393L28.0224 14.3935L33.2169 13.3239C33.674 13.2302 34.1056 12.9916 34.4378 12.6145C35.2546 11.6855 35.172 10.2666 34.2495 9.44421C33.327 8.62182 31.9178 8.70491 31.101 9.63383L27.5823 13.6265L28.4244 10.4754C28.7291 9.33982 28.0584 8.17015 26.9306 7.86335C25.807 7.56081 24.6412 8.23193 24.3365 9.36751L23.4753 12.5996C22.7009 11.9625 21.844 11.4405 20.896 11.072L23.2278 8.72409C24.0551 7.89105 24.0551 6.54454 23.2278 5.7115C22.4004 4.87846 21.0632 4.87846 20.2359 5.7115L17.938 8.02527L19.6159 2.9567C19.7619 2.51142 19.7746 2.01713 19.6159 1.53563C19.2266 0.359569 17.9634 -0.277464 16.7954 0.116687C15.6274 0.508708 14.9969 1.77851 15.3841 2.9567L17.062 8.02527L14.7641 5.7115C13.9368 4.87846 12.5996 4.87846 11.7722 5.7115C10.9449 6.54454 10.9449 7.89105 11.7722 8.72409L14.104 11.072C13.1582 11.4405 12.2991 11.9646 11.5247 12.5996L10.6677 9.37178C10.3652 8.23406 9.19296 7.55655 8.07787 7.86335C6.94798 8.16802 6.27724 9.33343 6.57981 10.4711L7.41771 13.635L3.90108 9.63596C3.59215 9.28655 3.17109 9.02876 2.67808 8.92649C1.47202 8.67722 0.293458 9.45913 0.045897 10.6735C-0.201664 11.8879 0.576989 13.0768 1.78517 13.3261L6.9776 14.3977L3.84606 15.2414C2.71829 15.5461 2.04754 16.7136 2.35012 17.8513C2.60191 18.8037 3.45674 19.4301 4.39197 19.4301L4.9421 19.3576L8.13289 18.4969C8.05037 18.9891 7.97843 19.4876 7.97843 20.0011C7.97843 20.5167 8.05037 21.0131 8.12865 21.5074L4.93787 20.6466C3.81221 20.3441 2.65058 21.0152 2.34589 22.1529C2.0412 23.2885 2.71405 24.4582 3.84183 24.7628L6.97972 25.6087L1.78517 26.6782C1.32814 26.7719 0.896491 27.0106 0.564294 27.3898C-0.254562 28.3187 -0.169925 29.7377 0.75261 30.5579C1.67514 31.3824 3.08645 31.2972 3.90108 30.3683L7.42406 26.3671L6.58193 29.5289C6.27724 30.6644 6.94798 31.8341 8.07787 32.1388L8.62801 32.2112C9.56112 32.2112 10.4159 31.5848 10.6699 30.6325L11.5289 27.4047C12.3033 28.0396 13.1603 28.5637 14.1103 28.9302L11.7744 31.278C10.947 32.109 10.947 33.4576 11.7744 34.2906C12.6017 35.1237 13.9389 35.1237 14.7662 34.2906L16.2601 32.7843H16.7933L15.3841 37.0433C15.2381 37.4886 15.2254 37.9829 15.3841 38.4644C15.7734 39.6404 17.0366 40.2775 18.2046 39.8833C19.3747 39.4913 20.0052 38.2215 19.6159 37.0433L18.2067 32.7843H18.7399L20.2359 34.2906C20.6506 34.7061 21.1901 34.9149 21.7318 34.9149C22.2735 34.9149 22.8152 34.7061 23.2278 34.2906C24.0551 33.4597 24.0551 32.1111 23.2278 31.278L20.896 28.9281C21.844 28.5616 22.703 28.0375 23.4774 27.4004L24.3365 30.6325C24.5904 31.5848 25.4431 32.2112 26.3783 32.2112L26.9285 32.1388C28.0563 31.8341 28.7291 30.6666 28.4244 29.5289L27.5844 26.3757L31.101 30.3683C31.41 30.7198 31.831 30.9755 32.3219 31.0778C33.528 31.327 34.7087 30.543 34.9541 29.3286C35.2017 28.1142 34.423 26.9275 33.2169 26.6782ZM17.5 25.3274C14.5822 25.3274 12.2102 22.9391 12.2102 20.0011C12.2102 17.063 14.5822 14.6747 17.5 14.6747C20.4178 14.6747 22.7898 17.063 22.7898 20.0011C22.7898 22.9391 20.4178 25.3274 17.5 25.3274Z" fill="black"/>
</svg>
