<svg width="45" height="43" viewBox="0 0 45 43" fill="none" xmlns="http://www.w3.org/2000/svg">
<path d="M33.7194 31.4715C32.4763 31.4715 31.4715 30.4666 31.4715 29.2235C31.4715 27.9804 32.4763 26.9755 33.7194 26.9755C37.4376 26.9755 40.4633 23.9498 40.4633 20.2317C40.4633 16.5135 37.4376 13.4878 33.7194 13.4878C33.1844 13.4878 32.6044 13.5822 31.8918 13.7822L29.4843 14.4589L29.0661 11.9906C28.3333 7.64756 24.6174 4.49592 20.2317 4.49592C15.2749 4.49592 11.2398 8.52876 11.2398 13.4878C11.2398 14.1037 11.3005 14.7129 11.4241 15.2996L12.0086 18.0871L8.78054 17.9702C6.5101 17.9837 4.49592 20.0001 4.49592 22.4796C4.49592 24.9591 6.5101 26.9755 8.99185 26.9755C10.235 26.9755 11.2398 27.9804 11.2398 29.2235C11.2398 30.4666 10.235 31.4715 8.99185 31.4715C4.03509 31.4715 0 27.4386 0 22.4796C0 18.2962 2.87065 14.7714 6.74838 13.771L6.74388 13.4878C6.74388 6.04926 12.7931 0 20.2317 0C26.0471 0 31.0758 3.68216 32.9304 9.02557C39.5057 8.48381 44.9592 13.7733 44.9592 20.2317C44.9592 26.4293 39.9171 31.4715 33.7194 31.4715ZM23.9161 22.4796L13.8002 31.5861L20.5441 34.8434L17.1722 42.7113L27.288 33.607L20.5441 30.3475L23.9161 22.4796Z" fill="black"/>
</svg>
